# AST/ASF file generated using VICON BodyLanguage
# -----------------------------------------------
:version 1.10
:name VICON
:units
  mass 1.0
  length 0.45
  angle deg
:documentation
   .ast/.asf automatically generated from VICON data using
   VICON BodyBuilder and BodyLanguage model FoxedUp or BRILLIANT.MOD
:root
   order TX TY TZ RX RY RZ
   axis XYZ
   position 0 0 0  
   orientation 0 0 0 
:bonedata
  begin
     id 1 
     name lhipjoint
     direction 0.64773 -0.699417 0.302095 
     length 2.48597 
     axis 0 0 0  XYZ
  end
  begin
     id 2 
     name lfemur
     direction 0.34202 -0.939693 0  
     length 6.71947  
     axis 0 0 20  XYZ
    dof rx ry rz
    limits (-160.0 20.0)
           (-70.0 70.0)
           (-60.0 70.0)
  end
  begin
     id 3 
     name ltibia
     direction 0.34202 -0.939693 0   
     length 8.08777   
     axis 0 0 20   XYZ
    dof rx
    limits (-10.0 170.0)
  end
  begin
     id 4 
     name lfoot
     direction 0.0808503 -0.222134 0.971658   
     length 2.08264   
     axis -90 7.62852e-016 20   XYZ
    dof rx rz
    limits (-45.0 90.0)
           (-70.0 20.0)
  end
  begin
     id 5 
     name ltoes
     direction 1.53502e-011 -4.22007e-011 1   
     length 1.04662   
     axis -90 7.62852e-016 20   XYZ
    dof rx
    limits (-90.0 20.0)
  end
  begin
     id 6 
     name rhipjoint
     direction -0.610924 -0.726792 0.313919   
     length 2.39233  
     axis 0 0 0  XYZ 
  end
  begin
     id 7 
     name rfemur
     direction -0.34202 -0.939693 0   
     length 6.96955   
     axis 0 0 -20   XYZ
    dof rx ry rz
    limits (-160.0 20.0)
           (-70.0 70.0)
           (-70.0 60.0)
  end
  begin
     id 8 
     name rtibia
     direction -0.34202 -0.939693 0   
     length 8.19584   
     axis 0 0 -20   XYZ
    dof rx
    limits (-10.0 170.0)
 end
 begin
     id 9 
     name rfoot
     direction -0.077777 -0.213691 0.9738   
     length 2.07539  
     axis -90 -7.62852e-016 -20   XYZ
    dof rx rz
    limits (-45.0 90.0)
           (-20.0 70.0)
  end
  begin
     id 10 
     name rtoes
     direction -1.53558e-011 -4.22006e-011 1   
     length 1.04381   
     axis -90 -7.62852e-016 -20   XYZ
    dof rx
    limits (-90.0 20.0)
  end
  begin
     id 11 
     name lowerback
     direction -0.00971646 0.996074 0.0879841   
     length 1.67643   
     axis 0 0 0   XYZ
    dof rx ry rz
    limits (-20.0 45.0)
           (-30.0 30.0)
           (-30.0 30.0)
  end
  begin
     id 12 
     name upperback
     direction 0.0127391 0.991676 0.128127   
     length 1.63741   
     axis 0 0 0   XYZ
    dof rx ry rz
    limits (-20.0 45.0)
           (-30.0 30.0)
           (-30.0 30.0)
  end
  begin
     id 13 
     name thorax
     direction 0.0167583 0.996049 0.0872067   
     length 1.65931   
     axis 0 0 0   XYZ
    dof rx ry rz
    limits (-20.0 45.0)
           (-30.0 30.0)
           (-30.0 30.0)
  end
  begin
     id 14 
     name lowerneck
     direction -0.0317829 0.998312 0.0486079   
     length 1.79021   
     axis 0 0 0   XYZ
    dof rx ry rz
    limits (-20.0 45.0)
           (-30.0 30.0)
           (-30.0 30.0)
  end
  begin
     id 15 
     name upperneck
     direction 0.0896851 0.972452 -0.215159   
     length 1.78797   
     axis 0 0 0   XYZ
    dof rx ry rz
    limits (-20.0 45.0)
           (-30.0 30.0)
           (-30.0 30.0)
  end
  begin
     id 16
     name head
     direction 0.0310949 0.996503 -0.0775582  
     length 1.81549  
     axis 0 0 0   XYZ
    dof rx ry rz
    limits (-20.0 45.0)
           (-30.0 30.0)
           (-30.0 30.0)
  end
  begin
     id 17 
     name lclavicle
     direction 0.853638 0.502051 -0.138733  
     length 3.31627  
     axis 0 0 0   XYZ
    dof ry rz
    limits (-20.0 10.0)
           (0.0 20.0)
  end
  begin
     id 18 
     name lhumerus
     direction 1 -4.48962e-011 -1.41788e-018   
     length 5.54893   
     axis 180 -30 -90   XYZ
    dof rx ry rz
    limits (-60.0 90.0)
           (-90.0 90.0)
           (-90.0 90.0)
  end
  begin
     id 19
     name lradius
     direction 1 -4.48962e-011 -4.95754e-027   
     length 3.02898   
     axis 180 -30 -90   XYZ
    dof rx
    limits (-10.0 170.0)
  end
  begin
     id 20
     name lwrist
     direction 1 -4.48952e-011 -1.03764e-026   
     length 1.51449   
     axis 9.09556e-015 90 90   XYZ
    dof ry
    limits (-180.0 0.0)
 end
  begin
     id 21 
     name lhand
     direction 1 -4.4902e-011 -2.07528e-026   
     length 0.640951   
     axis 1.3242e-014 90 90   XYZ
    dof rx rz
    limits (-90.0 90.0)
           (-45.0 45.0)
  end
  begin
     id 22 
     name lfingers
     direction 1 -4.49014e-011 -4.15056e-026   
     length 0.516751   
     axis 2.64841e-014 90 90   XYZ
    dof rx
    limits (0.0 90.0)
  end
  begin
     id 23
     name lthumb
     direction 0.707107 -6.35008e-011 0.707107   
     length 0.741954   
     axis -90 45 2.85299e-015   XYZ
    dof rx rz
    limits (-45.0 45.0)
           (-45.0 45.0)
  end
  begin
     id 24 
     name rclavicle
     direction -0.888531 0.455324 -0.0565039   
     length 3.20126  
     axis 0 0 0   XYZ 
    dof ry rz
    limits (-10.0 20.0)
           (-20.0 0.0)
  end
  begin
     id 25 
     name rhumerus
     direction -1 -4.48946e-011 -8.98298e-028  
     length 5.3519   
     axis 180 30 90   XYZ
    dof rx ry rz
    limits (-90.0 60.0)
           (-90.0 90.0)
           (-90.0 90.0)
  end
  begin
     id 26 
     name rradius
     direction -1 -4.4899e-011 -3.18779e-027   
     length 3.02531   
     axis 180 30 90   XYZ
    dof rx
    limits (-10.0 170.0)
  end
  begin
     id 27 
     name rwrist
     direction -1 -4.4897e-011 -1.03764e-026   
     length 1.51266   
     axis 9.09556e-015 -90 -90   XYZ
    dof ry
    limits (-180.0 0.0)
  end
  begin
     id 28
     name rhand
     direction -1 -4.48941e-011 -2.07528e-026   
     length 0.78389   
     axis 1.3242e-014 -90 -90   XYZ
    dof rx rz
    limits (-90.0 90.0)
           (-45.0 45.0)
  end
  begin
     id 29
     name rfingers
     direction -1 -4.49012e-011 -4.15056e-026   
     length 0.631992   
     axis 2.64841e-014 -90 -90   XYZ
    dof rx
    limits (0.0 90.0)
  end
  begin
     id 30
     name rthumb
     direction -0.707107 -6.3496e-011 0.707107   
     length 0.907418   
     axis -90 -45 -2.85299e-015   XYZ
    dof rx rz
    limits (-45.0 45.0)
           (-45.0 45.0)
  end
:hierarchy
  begin
    root lhipjoint rhipjoint lowerback
    lhipjoint lfemur
    lfemur ltibia
    ltibia lfoot
    lfoot ltoes
    rhipjoint rfemur
    rfemur rtibia
    rtibia rfoot
    rfoot rtoes
    lowerback upperback
    upperback thorax
    thorax lowerneck lclavicle rclavicle
    lowerneck upperneck
    upperneck head
    lclavicle lhumerus
    lhumerus lradius
    lradius lwrist
    lwrist lhand lthumb
    lhand lfingers
    rclavicle rhumerus
    rhumerus rradius
    rradius rwrist
    rwrist rhand rthumb
    rhand rfingers
  end

#!OML:ASF E:\Style3\Style3.ASF
:FULLY-SPECIFIED
:DEGREES
1062
root -1.55379 17.6687 0.246937 -379.869 82.1882 -414.196
lowerback 24.0246 -0.720013 -8.12238
upperback 14.5935 -1.1575 -5.03344
thorax 3.00224 -0.37372 -0.61323
lowerneck -7.74695 -12.945 -9.00033
upperneck 23.479 -20.6525 18.0806
head 11.9764 -8.60366 5.15015
rclavicle 6.04305e-014 -3.97569e-015
rhumerus 79.811 0.00225863 -16.7346
rradius 22.6063
rwrist 59.9952
rhand -28.3999 39.3604
rfingers 7.12502
rthumb -1.77214 9.38803
lclavicle 6.04305e-014 -3.97569e-015
lhumerus 44.3642 -57.7471 68.7527
lradius 113.458
lwrist 101.31
lhand -16.632 24.6542
lfingers 7.12502
lthumb 9.59039 54.4159
rfemur -47.3136 8.46122 13.4199
rtibia 17.3163
rfoot -3.03041 -11.1347
rtoes -27.0179
lfemur -54.3454 0.402548 -8.01083
ltibia 35.0679
lfoot -6.15366 22.9422
ltoes -26.1845
1063
root -1.55953 17.6718 0.270215 -377.659 81.8637 -411.685
lowerback 24.0246 -0.720013 -8.12238
upperback 14.5935 -1.1575 -5.03344
thorax 3.00224 -0.37372 -0.61323
lowerneck -7.74695 -12.945 -9.00033
upperneck 23.479 -20.6525 18.0806
head 11.9764 -8.60366 5.15015
rclavicle 6.04305e-014 -3.97569e-015
rhumerus 79.811 0.00225863 -16.7346
rradius 22.6063
rwrist 59.9952
rhand -28.3999 39.3604
rfingers 7.12502
rthumb -1.77214 9.38803
lclavicle 6.04305e-014 -3.97569e-015
lhumerus 44.3642 -57.7471 68.7527
lradius 113.458
lwrist 101.31
lhand -16.632 24.6542
lfingers 7.12502
lthumb 9.59039 54.4159
rfemur -47.0405 8.55291 13.6015
rtibia 17.2337
rfoot -3.02601 -10.6938
rtoes -27.2413
lfemur -54.0513 0.453328 -7.90259
ltibia 35.3447
lfoot -6.23976 23.2042
ltoes -25.8109
1064
root -1.56577 17.6742 0.293989 -376.059 81.5462 -409.789
lowerback 24.0246 -0.720013 -8.12238
upperback 14.5935 -1.1575 -5.03344
thorax 3.00224 -0.37372 -0.61323
lowerneck -7.74695 -12.945 -9.00033
upperneck 23.479 -20.6525 18.0806
head 11.9764 -8.60366 5.15015
rclavicle 6.04305e-014 -3.97569e-015
rhumerus 79.811 0.00225863 -16.7346
rradius 22.6063
rwrist 59.9952
rhand -28.3999 39.3604
rfingers 7.12502
rthumb -1.77214 9.38803
lclavicle 6.04305e-014 -3.97569e-015
lhumerus 44.3642 -57.7471 68.7527
lradius 113.458
lwrist 101.31
lhand -16.632 24.6542
lfingers 7.12502
lthumb 9.59039 54.4159
rfemur -46.7602 8.54952 13.9008
rtibia 17.1494
rfoot -2.91993 -10.133
rtoes -28.3711
lfemur -53.7877 0.554911 -7.79498
ltibia 35.6415
lfoot -6.35951 23.4055
ltoes -25.2905
1065
root -1.57455 17.6748 0.314655 -373.98 81.2521 -407.462
lowerback 24.0246 -0.720013 -8.12238
upperback 14.5935 -1.1575 -5.03344
thorax 3.00224 -0.37372 -0.61323
lowerneck -7.74695 -12.945 -9.00033
upperneck 23.479 -20.6525 18.0806
head 11.9764 -8.60366 5.15015
rclavicle 6.04305e-014 -3.97569e-015
rhumerus 79.811 0.00225863 -16.7346
rradius 22.6063
rwrist 59.9952
rhand -28.3999 39.3604
rfingers 7.12502
rthumb -1.77214 9.38803
lclavicle 6.04305e-014 -3.97569e-015
lhumerus 44.3642 -57.7471 68.7527
lradius 113.458
lwrist 101.31
lhand -16.632 24.6542
lfingers 7.12502
lthumb 9.59039 54.4159
rfemur -46.562 8.50255 14.0973
rtibia 17.0801
rfoot -2.8549 -9.54746
rtoes -29.4388
lfemur -53.6106 0.658658 -7.81864
ltibia 35.918
lfoot -6.01871 23.6467
ltoes -26.0622
1066
root -1.58298 17.6767 0.335362 -372.263 80.9634 -405.476
lowerback 24.0246 -0.720013 -8.12238
upperback 14.5935 -1.1575 -5.03344
thorax 3.00224 -0.37372 -0.61323
lowerneck -7.74695 -12.945 -9.00033
upperneck 23.479 -20.6525 18.0806
head 11.9764 -8.60366 5.15015
rclavicle 6.04305e-014 -3.97569e-015
rhumerus 79.811 0.00225863 -16.7346
rradius 22.6063
rwrist 59.9952
rhand -28.3999 39.3604
rfingers 7.12502
rthumb -1.77214 9.38803
lclavicle 6.04305e-014 -3.97569e-015
lhumerus 44.3642 -57.7471 68.7527
lradius 113.458
lwrist 101.31
lhand -16.632 24.6542
lfingers 7.12502
lthumb 9.59039 54.4159
rfemur -46.3344 8.55358 14.2181
rtibia 17.0092
rfoot -2.89823 -9.18088
rtoes -28.6636
lfemur -53.4061 0.676351 -7.76185
ltibia 36.1926
lfoot -6.25573 23.9405
ltoes -25.412
1067
root -1.58906 17.6808 0.360227 -370.962 80.5892 -403.836
lowerback 24.0246 -0.720013 -8.12238
upperback 14.5935 -1.1575 -5.03344
thorax 3.00224 -0.37372 -0.61323
lowerneck -7.74695 -12.945 -9.00033
upperneck 23.479 -20.6525 18.0806
head 11.9764 -8.60366 5.15015
rclavicle 6.04305e-014 -3.97569e-015
rhumerus 79.811 0.00225863 -16.7346
rradius 22.6063
rwrist 59.9952
rhand -28.3999 39.3604
rfingers 7.12502
rthumb -1.77214 9.38803
lclavicle 6.04305e-014 -3.97569e-015
lhumerus 44.3642 -57.7471 68.7527
lradius 113.458
lwrist 101.31
lhand -16.632 24.6542
lfingers 7.12502
lthumb 9.59039 54.4159
rfemur -45.9859 8.76216 14.3621
rtibia 16.8841
rfoot -3.01493 -8.97232
rtoes -26.6404
lfemur -53.0612 0.740252 -7.62216
ltibia 36.4623
lfoot -7.00967 24.1854
ltoes -23.5718
